<svg width="48" height="48" viewBox="0 0 48 48" fill="none" xmlns="http://www.w3.org/2000/svg">
<rect width="48" height="48" fill="#686EF8"></rect>
<path fill-rule="evenodd" clip-rule="evenodd" d="M26.103 8.68542L10.9104 14.4592V17.8898C8.10768 18.0889 5.58067 20.1105 5.32031 20.325L6.80588 20.7078C11.2932 21.8718 10.9257 29.5447 10.8797 30.387L23.4535 39.3158L38.2173 34.2158L38.3398 16.1899C38.3398 16.1899 30.8201 11.6413 26.103 8.68542ZM12.5338 29.606C12.6257 27.7375 12.5338 22.1628 8.88875 19.8808C9.48604 19.6817 10.1599 19.5592 10.895 19.5133C13.1157 19.3295 17.0364 19.7583 22.749 22.6835L22.7796 36.8807L12.5338 29.606ZM33.148 31.6276L31.2489 29.8051L28.8751 33.0059V24.797L33.148 23.0817V31.6276ZM23.622 21.3358L13.5139 15.1791L25.9345 10.4467L35.7822 16.4809L23.622 21.3358Z" fill="white"></path>
<path d="M19.0197 29.1232C19.0695 29.1308 19.1154 29.1347 19.1652 29.1308C19.4791 29.127 19.7242 29.0045 19.9041 28.7595C20.0917 28.5144 20.1875 28.1736 20.1913 27.7257C20.1951 27.2624 20.1032 26.7991 19.9233 26.3244C19.751 25.8496 19.5097 25.4016 19.1958 24.9881C18.8857 24.5631 18.5372 24.2262 18.1543 23.9696L15.4053 22.1318L15.344 29.5941L16.6267 30.4518L16.6497 27.7716L17.6298 28.4302L18.8627 31.945L20.4057 32.9826L19.0197 29.1232ZM18.767 27.3811C18.7019 27.4921 18.6061 27.5572 18.4798 27.5687C18.3611 27.5725 18.2195 27.5151 18.0625 27.4079L16.6611 26.4736L16.6764 24.3755L17.9132 25.2025C18.1084 25.3327 18.2769 25.4897 18.4262 25.6811C18.5717 25.8649 18.6827 26.0601 18.7593 26.2669C18.8359 26.4813 18.8704 26.6919 18.8665 26.9025C18.8665 27.1016 18.8359 27.2586 18.767 27.3811Z" fill="white"></path>
</svg>
