<svg width="48" height="48" viewBox="0 0 48 48" fill="none" xmlns="http://www.w3.org/2000/svg">
<g clip-path="url(#clip0_3566_103)">
<rect width="48" height="48" fill="#3758F9"></rect>
<path d="M53.2378 24.0007C53.2378 7.85301 40.1475 -5.2373 23.9998 -5.2373C7.85203 -5.2373 -5.23828 7.85301 -5.23828 24.0007C-5.23828 40.1485 7.85203 53.2388 23.9998 53.2388C40.1475 53.2388 53.2378 40.1485 53.2378 24.0007Z" fill="url(#paint0_linear_3566_103)"></path>
<path d="M53.2378 24.0007C53.2378 7.85301 40.1475 -5.2373 23.9998 -5.2373C7.85203 -5.2373 -5.23828 7.85301 -5.23828 24.0007C-5.23828 40.1485 7.85203 53.2388 23.9998 53.2388C40.1475 53.2388 53.2378 40.1485 53.2378 24.0007Z" fill="url(#paint1_linear_3566_103)" fill-opacity="0.56"></path>
<path d="M24.3911 8.79688C28.2434 8.79688 31.88 10.2201 34.6942 12.8149C34.8502 12.9588 34.8518 13.2032 34.7018 13.3532L28.7451 19.3099C28.6009 19.4542 28.3691 19.4577 28.2112 19.3284C27.1354 18.4476 25.8006 17.9693 24.3935 17.9693C21.0628 17.967 18.3545 20.6753 18.3545 24.0012H9.17969C9.17969 15.6175 16.0049 8.79688 24.3911 8.79688Z" fill="white"></path>
<path d="M18.3545 24C18.3545 27.1215 20.7396 29.698 23.7843 30.0039C23.9873 30.0243 24.1488 30.1907 24.1488 30.3947V38.8182C24.1488 39.0304 23.9739 39.202 23.7617 39.1934C15.6644 38.8616 9.17969 32.1732 9.17969 24H18.3545Z" fill="white"></path>
<path opacity="0.56" d="M33.4284 25.207H29.8411C29.6311 25.207 29.4609 25.3773 29.4609 25.5872V29.172C29.4609 29.3821 29.6311 29.5522 29.8411 29.5522H33.4284C33.6383 29.5522 33.8084 29.3821 33.8084 29.172V25.5872C33.8084 25.3773 33.6383 25.207 33.4284 25.207Z" fill="white"></path>
<path opacity="0.4" d="M38.2564 25.207H34.6691C34.4592 25.207 34.2891 25.3773 34.2891 25.5872V29.172C34.2891 29.3821 34.4592 29.5522 34.6691 29.5522H38.2564C38.4663 29.5522 38.6366 29.3821 38.6366 29.172V25.5872C38.6366 25.3773 38.4663 25.207 38.2564 25.207Z" fill="white"></path>
<path opacity="0.72" d="M33.4284 30.0352H29.8411C29.6311 30.0352 29.4609 30.2053 29.4609 30.4152V34.0002C29.4609 34.2101 29.6311 34.3802 29.8411 34.3802H33.4284C33.6383 34.3802 33.8084 34.2101 33.8084 34.0002V30.4152C33.8084 30.2053 33.6383 30.0352 33.4284 30.0352Z" fill="white"></path>
<path opacity="0.88" d="M28.6001 30.0352H25.0129C24.803 30.0352 24.6328 30.2053 24.6328 30.4152V34.0002C24.6328 34.2101 24.803 34.3802 25.0129 34.3802H28.6001C28.8101 34.3802 28.9803 34.2101 28.9803 34.0002V30.4152C28.9803 30.2053 28.8101 30.0352 28.6001 30.0352Z" fill="white"></path>
<path opacity="0.56" d="M38.2544 30.0352H34.6672C34.4573 30.0352 34.2871 30.2053 34.2871 30.4152V34.0002C34.2871 34.2101 34.4573 34.3802 34.6672 34.3802H38.2544C38.4643 34.3802 38.6346 34.2101 38.6346 34.0002V30.4152C38.6346 30.2053 38.4643 30.0352 38.2544 30.0352Z" fill="white"></path>
<path opacity="0.88" d="M33.4284 34.8574H29.8411C29.6311 34.8574 29.4609 35.0276 29.4609 35.2375V38.8224C29.4609 39.0323 29.6311 39.2025 29.8411 39.2025H33.4284C33.6383 39.2025 33.8084 39.0323 33.8084 38.8224V35.2375C33.8084 35.0276 33.6383 34.8574 33.4284 34.8574Z" fill="white"></path>
<path opacity="0.96" d="M28.6001 34.8574H25.0129C24.803 34.8574 24.6328 35.0276 24.6328 35.2375V38.8224C24.6328 39.0323 24.803 39.2025 25.0129 39.2025H28.6001C28.8101 39.2025 28.9803 39.0323 28.9803 38.8224V35.2375C28.9803 35.0276 28.8101 34.8574 28.6001 34.8574Z" fill="white"></path>
<path opacity="0.72" d="M38.2544 34.8574H34.6672C34.4573 34.8574 34.2871 35.0276 34.2871 35.2375V38.8224C34.2871 39.0323 34.4573 39.2025 34.6672 39.2025H38.2544C38.4643 39.2025 38.6346 39.0323 38.6346 38.8224V35.2375C38.6346 35.0276 38.4643 34.8574 38.2544 34.8574Z" fill="white"></path>
</g>
<defs>
<linearGradient id="paint0_linear_3566_103" x1="23.9998" y1="-5.2373" x2="23.9998" y2="53.2388" gradientUnits="userSpaceOnUse">
<stop stop-color="#3558EA"></stop>
<stop offset="1" stop-color="#0000FF"></stop>
</linearGradient>
<linearGradient id="paint1_linear_3566_103" x1="31.7792" y1="3.25704" x2="6.02309" y2="79.9995" gradientUnits="userSpaceOnUse">
<stop offset="0.215628" stop-color="#1E1983" stop-opacity="0"></stop>
<stop offset="0.447191" stop-color="#1E1983" stop-opacity="0.19"></stop>
<stop offset="0.619792" stop-color="#1E1983"></stop>
</linearGradient>
<clipPath id="clip0_3566_103">
<rect width="48" height="48" fill="white"></rect>
</clipPath>
</defs>
</svg>
