<svg width="48" height="48" viewBox="0 0 48 48" fill="none" xmlns="http://www.w3.org/2000/svg">
<rect width="48" height="48" fill="url(#paint0_linear_3566_187)"></rect>
<path d="M38.6042 19.8264C38.6042 25.5878 33.9336 30.2583 28.1723 30.2583C22.4109 30.2583 17.7404 25.5878 17.7404 19.8264C17.7404 14.0651 22.4109 9.39453 28.1723 9.39453C33.9336 9.39453 38.6042 14.0651 38.6042 19.8264Z" fill="url(#paint1_linear_3566_187)"></path>
<path d="M20.8694 33.3879C20.8694 36.2685 18.5341 38.6038 15.6535 38.6038C12.7728 38.6038 10.4375 36.2685 10.4375 33.3879C10.4375 30.5071 12.7728 28.1719 15.6535 28.1719C18.5341 28.1719 20.8694 30.5071 20.8694 33.3879Z" fill="url(#paint2_linear_3566_187)"></path>
<defs>
<linearGradient id="paint0_linear_3566_187" x1="37.6667" y1="42" x2="2.57226" y2="0.235005" gradientUnits="userSpaceOnUse">
<stop stop-color="#365CF5"></stop>
<stop offset="1" stop-color="#946FFF"></stop>
</linearGradient>
<linearGradient id="paint1_linear_3566_187" x1="28.1723" y1="9.39453" x2="28.1723" y2="45.9063" gradientUnits="userSpaceOnUse">
<stop stop-color="white"></stop>
<stop offset="1" stop-color="white" stop-opacity="0"></stop>
</linearGradient>
<linearGradient id="paint2_linear_3566_187" x1="15.6535" y1="11.4809" x2="15.6535" y2="38.6038" gradientUnits="userSpaceOnUse">
<stop stop-color="white" stop-opacity="0"></stop>
<stop offset="1" stop-color="white"></stop>
</linearGradient>
</defs>
</svg>
