<svg width="48" height="48" viewBox="0 0 48 48" fill="none" xmlns="http://www.w3.org/2000/svg">
<rect width="48" height="48" fill="#725CFF"></rect>
<path d="M17.2437 17.3349C16.9036 16.9948 16.4003 16.8452 15.9242 16.9676C15.4481 17.0764 15.0672 17.4301 14.9175 17.9062L9.06823 36.1207C8.90499 36.624 9.04102 37.1681 9.4083 37.5354C9.68036 37.8075 10.034 37.9435 10.4013 37.9435C10.5374 37.9435 10.687 37.9163 10.823 37.8755L29.0511 32.0262C29.5136 31.8765 29.8673 31.4957 29.9897 31.0196C30.1122 30.5434 29.9625 30.0401 29.6224 29.7001L17.2437 17.3349ZM12.5642 34.3931L16.8764 20.9397L26.0176 30.0809L12.5642 34.3931Z" fill="white"></path>
<path d="M24.7526 20.3543C24.8479 21.0616 25.4464 21.5785 26.1401 21.5785C26.7503 21.5785 27.3722 21.4402 27.9766 21.3609C29.7314 21.1296 31.0644 19.6197 31.0508 17.8513V17.416C31.0508 17.212 31.1325 17.0351 31.2685 16.8991C31.4045 16.7631 31.595 16.6814 31.7854 16.6814H34.0979C34.8733 16.6814 35.499 16.0557 35.499 15.2803C35.499 14.505 34.8733 13.8792 34.0979 13.8792H31.7854C30.8468 13.8792 29.9626 14.2465 29.2961 14.9131C28.6295 15.5796 28.2622 16.4774 28.2622 17.416V17.8513C28.2622 18.2186 27.9902 18.5315 27.6229 18.5723L25.9633 18.7899C25.2015 18.8851 24.6574 19.5925 24.7526 20.3543Z" fill="white"></path>
<path d="M38.4503 22.3136C34.9135 19.6066 31.091 22.0008 29.5539 23.6467C29.0233 24.2044 29.0641 25.0886 29.6219 25.6192C30.1878 26.1568 31.0703 26.1149 31.5943 25.5648C31.7031 25.4423 34.3557 22.6945 36.7499 24.5309C37.362 25.007 38.2462 24.8846 38.7087 24.2725C39.1848 23.6603 39.0624 22.7761 38.4503 22.3136Z" fill="white"></path>
<path d="M23.1334 17.4166C24.6977 16.2195 26.2757 13.4173 24.2216 10.6286C23.7591 10.0029 22.8885 9.86686 22.2628 10.3294C21.637 10.7919 21.501 11.6625 21.9635 12.2882C23.0381 13.7437 21.8139 14.9 21.4194 15.2129C20.8073 15.689 20.6984 16.5596 21.1609 17.1717C21.6395 17.7938 22.5191 17.8692 23.1334 17.4166Z" fill="white"></path>
</svg>
