<svg width="48" height="48" viewBox="0 0 48 48" fill="none" xmlns="http://www.w3.org/2000/svg">
<path fill-rule="evenodd" clip-rule="evenodd" d="M23.9999 41C33.3924 41 40.9999 33.3925 40.9999 24C40.9999 14.6075 33.3924 7 23.9999 7C14.6074 7 6.99988 14.6075 6.99988 24C6.99988 24.3719 7.01168 24.7413 7.03507 25.1076C7.18587 27.4685 8.79729 29.5984 11.138 29.9415C15.5932 30.5945 19.4929 27.8827 21.4329 25.7935L14.1994 34.0045L22.0789 26.5925C20.0507 28.6002 17.4613 32.6025 18.2768 37.0459C18.6982 39.3419 20.835 40.8695 23.1668 40.9801C23.4458 40.9934 23.7263 41 24.0084 41H23.9999ZM22.0704 26.584L22.4954 26.1845C22.3594 26.3035 22.2149 26.4395 22.0704 26.584ZM21.4244 25.7935L21.8069 25.36C21.6879 25.5045 21.5604 25.649 21.4244 25.7935Z" fill="url(#paint0_radial_3595_1130)"></path>
<path d="M22.0275 20.0627L20.336 21.7117C20.0215 22.0177 19.741 22.2982 19.52 22.5447C19.3755 22.7062 19.231 22.8847 19.112 23.0802L19.095 23.0632C19.095 23.0632 19.044 23.0207 19.0355 23.0037C18.738 22.7232 18.398 22.5022 18.0155 22.3492C17.9985 22.3492 17.973 22.3322 17.9305 22.3152L17.6755 22.2217C17.3355 22.0857 17.242 21.6607 17.5055 21.4057C18.2535 20.6747 19.146 19.8077 19.571 19.6292C19.9535 19.4762 20.3615 19.4252 20.761 19.4762C21.1265 19.5272 21.4665 19.7142 22.0275 20.0627Z" fill="white"></path>
<path d="M24.9199 28.7649C25.0559 28.9009 25.1494 28.9944 25.2259 29.0964C25.3364 29.2324 25.4299 29.3769 25.5149 29.5214C25.6084 29.6914 25.6849 29.8699 25.8294 30.2354C25.9484 30.5329 26.3479 30.6094 26.5774 30.3799L26.6369 30.3289C27.3849 29.5979 28.2774 28.7309 28.4559 28.3059C28.6174 27.9319 28.6684 27.5324 28.6089 27.1414C28.5579 26.7844 28.3709 26.4529 28.0139 25.9004L26.3224 27.5579C26.0079 27.8724 25.7104 28.1529 25.4469 28.3739C25.2854 28.5099 25.1154 28.6374 24.9284 28.7564L24.9199 28.7649Z" fill="white"></path>
<path fill-rule="evenodd" clip-rule="evenodd" d="M25.6417 26.8729L29.5092 23.0564C30.0702 22.5124 30.3507 22.2319 30.4952 21.8919C30.6397 21.5434 30.6397 21.1609 30.6397 20.3874V20.0219C30.6397 18.8319 30.6397 18.2369 30.2657 17.8714C29.8917 17.5059 29.2797 17.5059 28.0642 17.5059H27.6902C26.8997 17.5059 26.5002 17.5059 26.1517 17.6504C25.7947 17.7949 25.5142 18.0669 24.9617 18.6194L21.0772 22.4189C20.4227 23.0564 20.0147 23.4559 19.8617 23.8384C19.8107 23.9574 19.7852 24.0764 19.7852 24.2039C19.7852 24.7224 20.2187 25.1474 21.0772 25.9889L21.1962 26.0994L22.5477 24.7479C22.7432 24.5524 23.0577 24.5524 23.2532 24.7479C23.4487 24.9349 23.4487 25.2494 23.2532 25.4364L21.8932 26.7879L21.9867 26.8729C22.8452 27.7144 23.2787 28.1309 23.8142 28.1309C23.9332 28.1309 24.0437 28.1139 24.1627 28.0714C24.5622 27.9269 24.9702 27.5274 25.6417 26.8729ZM27.4522 22.3934C26.9507 22.8864 26.1347 22.8864 25.6247 22.3934C25.1232 21.9004 25.1232 21.1014 25.6247 20.6084C26.1262 20.1154 26.9422 20.1154 27.4522 20.6084C27.9537 21.1014 27.9537 21.9004 27.4522 22.3934Z" fill="white"></path>
<defs>
<radialGradient id="paint0_radial_3595_1130" cx="0" cy="0" r="1" gradientUnits="userSpaceOnUse" gradientTransform="translate(24.0764 23.983) rotate(90) scale(17)">
<stop stop-color="#9893FF"></stop>
<stop offset="1" stop-color="#635BFF"></stop>
</radialGradient>
</defs>
</svg>
