<svg width="48" height="48" viewBox="0 0 48 48" fill="none" xmlns="http://www.w3.org/2000/svg">
<rect width="48" height="48" fill="#13161F"></rect>
<path d="M39 23.9819C39 26.0438 38.5913 28.0129 37.8483 29.7776C35.582 35.2017 30.2507 38.9912 24.0093 38.9912C15.7245 38.9912 9 32.2853 9 24.0005C9 15.7156 15.7245 9.00977 24.0093 9.00977C28.8204 9.00977 33.1114 11.276 35.8606 14.8054H23.7306L25.8483 17.9819H28.5603V27.8271L25.5325 23.2389L19.9412 14.8054H16.7461V32.9949H19.9226V20.1553L28.5603 33.1955H31.7183V17.9819H37.7554C38.5542 19.8209 39 21.8457 39 23.9819Z" fill="white"></path>
</svg>
