<svg xmlns="http://www.w3.org/2000/svg" fill="none" viewBox="0 0 34 34" height="34" width="34">
<path fill="#3C50E0" d="M1.0659 6.14528C0 8.36672 0 11.2445 0 17C0 22.7555 0 25.6333 1.0659 27.8547C2.13191 30.0764 3.92363 31.8681 6.14528 32.9341C8.36672 34 11.2445 34 17 34C22.7555 34 25.6333 34 27.8547 32.9341C30.0764 31.8681 31.8681 30.0764 32.9341 27.8547C34 25.6333 34 22.7555 34 17C34 11.2445 34 8.36672 32.9341 6.14528C31.8681 3.92363 30.0764 2.13191 27.8547 1.0659C25.6333 0 22.7555 0 17 0C11.2445 0 8.36672 0 6.14528 1.0659C3.92363 2.13191 2.13191 3.92363 1.0659 6.14528Z" clip-rule="evenodd" fill-rule="evenodd"></path>
<path fill="white" d="M13.0467 15.0341H23.2905L23.658 13.5643H15.0075C14.8793 13.5643 14.7754 13.4604 14.7754 13.3322V12.3265C14.7754 12.1983 14.8793 12.0944 15.0075 12.0944H24.5993C25.0052 12.0944 25.3342 12.4234 25.3342 12.8293C25.3342 12.8894 25.3269 12.9493 25.3123 13.0076L23.4749 20.3569C23.3932 20.6841 23.0992 20.9136 22.762 20.9136H12.3117C11.9058 20.9136 11.5768 20.5846 11.5768 20.1787V12.0944H6.62564C6.49746 12.0944 6.39355 11.9905 6.39355 11.8623V10.8566C6.39355 10.7284 6.49746 10.6245 6.62564 10.6245H12.3117C12.7176 10.6245 13.0467 10.9536 13.0467 11.3594V15.0341Z"></path>
<path fill="white" d="M13.0467 25.3233C12.2349 25.3233 11.5768 24.6652 11.5768 23.8534C11.5768 23.0416 12.2349 22.3835 13.0467 22.3835C13.8585 22.3835 14.5165 23.0416 14.5165 23.8534C14.5165 24.6652 13.8585 25.3233 13.0467 25.3233Z"></path>
<path fill="white" d="M21.8659 25.3233C21.0541 25.3233 20.3961 24.6652 20.3961 23.8534C20.3961 23.0416 21.0541 22.3835 21.8659 22.3835C22.6777 22.3835 23.3358 23.0416 23.3358 23.8534C23.3358 24.6652 22.6777 25.3233 21.8659 25.3233Z"></path>
</svg>
