<svg width="48" height="48" viewBox="0 0 48 48" fill="none" xmlns="http://www.w3.org/2000/svg">
<rect width="48" height="48" fill="#3758F9"></rect>
<g clip-path="url(#clip0_3566_76)">
<path opacity="0.72" d="M39.0086 22.7649C38.9938 22.6152 38.9243 22.4762 38.8132 22.3744C38.7021 22.2726 38.5573 22.2151 38.4063 22.2129H23.3974C22.9898 22.2228 22.5919 22.3388 22.2432 22.5493C21.8946 22.7598 21.6072 23.0575 21.4098 23.4129C21.227 23.7307 21.1309 24.0906 21.1309 24.4569C21.1309 24.8232 21.227 25.1831 21.4098 25.5009C21.462 25.6008 21.5394 25.6855 21.6345 25.7465C21.7295 25.8075 21.8389 25.8428 21.9518 25.8489H38.4425C38.5934 25.8467 38.7383 25.7892 38.8494 25.6873C38.9605 25.5855 39.03 25.4465 39.0448 25.2969C39.0448 24.8289 39.0448 24.4329 39.0448 24.0969C39.0448 23.7609 39.0448 23.2209 39.0086 22.7649Z" fill="white"></path>
<path d="M38.9976 22.7649C38.9857 22.6163 38.9187 22.4774 38.8095 22.3754C38.7004 22.2733 38.557 22.2154 38.4074 22.2129H35.9982C35.9137 22.2138 35.8303 22.2325 35.7536 22.2676C35.6768 22.3028 35.6083 22.3536 35.5525 22.4169C35.4964 22.4777 35.4543 22.5501 35.4293 22.6289C35.4043 22.7077 35.3971 22.791 35.408 22.8729C35.408 23.2569 35.408 23.6409 35.408 24.0729C35.405 25.9877 34.9179 27.871 33.9915 29.5488C33.0652 31.2266 31.7295 32.6449 30.1078 33.6729C29.9392 33.7809 29.7827 33.9129 29.602 34.0089C28.7181 34.5104 27.7697 34.8898 26.7832 35.1369L28.3613 37.9329C28.4148 38.0253 28.4922 38.1019 28.5854 38.1546C28.6785 38.2074 28.7841 38.2344 28.8912 38.2329C28.9549 38.2444 29.0203 38.2444 29.084 38.2329L29.4694 38.0769L29.8188 37.9329C30.3516 37.7124 30.8706 37.46 31.3727 37.1769C33.7213 35.859 35.6727 33.9385 37.0242 31.6151C38.3756 29.2917 39.0779 26.6501 39.0579 23.9649C39.0579 23.5209 39.0338 23.1729 38.9976 22.7649Z" fill="white"></path>
<path d="M30.4704 34.1544C30.3894 34.0175 30.2608 33.915 30.1089 33.8664H29.9403C29.8357 33.8672 29.7327 33.8918 29.6391 33.9384C27.9215 34.912 25.9781 35.4209 24.0018 35.4144C20.9688 35.408 18.0618 34.2049 15.9171 32.0684C13.7724 29.9318 12.5647 27.0359 12.5584 24.0144C12.5647 20.9928 13.7724 18.0969 15.9171 15.9604C18.0618 13.8238 20.9688 12.6207 24.0018 12.6144C25.9771 12.615 27.9188 13.1234 29.6391 14.0904C29.7291 14.1472 29.8338 14.1764 29.9403 14.1744H30.0728C30.1554 14.1562 30.2333 14.1213 30.3017 14.0717C30.3701 14.0221 30.4276 13.959 30.4704 13.8864L31.675 11.7984C31.7546 11.6595 31.7765 11.4951 31.736 11.3403C31.6955 11.1856 31.5956 11.0528 31.4581 10.9704C29.1907 9.69395 26.6303 9.02421 24.0259 9.02637C20.0345 9.03272 16.2083 10.6151 13.3859 13.4268C10.5635 16.2385 8.97512 20.0501 8.96875 24.0264C8.97512 28.0027 10.5635 31.8143 13.3859 34.626C16.2083 37.4376 20.0345 39.02 24.0259 39.0264C26.6303 39.0285 29.1907 38.3588 31.4581 37.0824C31.527 37.0438 31.5875 36.9919 31.6358 36.9297C31.6842 36.8674 31.7196 36.7962 31.7398 36.7201C31.76 36.644 31.7648 36.5646 31.7536 36.4867C31.7425 36.4087 31.7157 36.3338 31.675 36.2664L30.4704 34.1544Z" fill="white"></path>
<path opacity="0.56" d="M25.7232 25.8006H21.9168C21.8089 25.7929 21.7042 25.7594 21.612 25.703C21.5197 25.6466 21.4425 25.569 21.3867 25.4766L28.3854 37.8246C28.4389 37.917 28.5163 37.9936 28.6095 38.0463C28.7026 38.099 28.8082 38.126 28.9153 38.1246C28.9831 38.136 29.0524 38.136 29.1201 38.1246C29.9161 37.8391 30.6859 37.4858 31.4209 37.0686C31.4898 37.03 31.5502 36.9781 31.5985 36.9159C31.6469 36.8536 31.6823 36.7824 31.7025 36.7063C31.7227 36.6302 31.7275 36.5508 31.7163 36.4728C31.7052 36.3949 31.6784 36.32 31.6377 36.2526L25.7232 25.8006Z" fill="white"></path>
</g>
<defs>
<clipPath id="clip0_3566_76">
<rect width="30.1144" height="30" fill="white" transform="translate(8.94336 9)"></rect>
</clipPath>
</defs>
</svg>
