<svg width="48" height="48" viewBox="0 0 48 48" fill="none" xmlns="http://www.w3.org/2000/svg">
<rect width="48" height="48" fill="#5373F7"></rect>
<path opacity="0.56" d="M20.2498 11.5878C20.2498 10.2162 21.3686 9.10535 22.7499 9.10535H23.9998C32.2843 9.10535 38.9999 15.7738 38.9999 23.9999V36.4121C38.9999 37.7836 37.8812 38.8945 36.5 38.8945H35.2499C26.9655 38.8945 20.2498 32.2261 20.2498 23.9999V11.5878Z" fill="white"></path>
<path opacity="0.88" d="M21.5001 38.8945C28.4037 38.8945 34.0001 33.3374 34.0001 26.4824C34.0001 19.6273 28.4037 14.0702 21.5001 14.0702C14.5965 14.0702 9 19.6273 9 26.4824C9 33.3374 14.5965 38.8945 21.5001 38.8945Z" fill="white"></path>
</svg>
