<svg xmlns="http://www.w3.org/2000/svg" fill="none" viewBox="0 0 49 48" height="48" width="49">
<path fill="url(#paint0_radial_1256_3399)" d="M24.3401 4C26.461 4 28.5048 4.33014 30.423 4.94183L27.9753 7.38954C26.8041 7.13441 25.5878 7 24.3401 7C14.9512 7 7.34009 14.6112 7.34009 24C7.34009 33.3888 14.9512 41 24.3401 41C33.7289 41 41.3401 33.3888 41.3401 24C41.3401 22.7166 41.1979 21.4664 40.9283 20.2644L43.3684 17.8243C43.9992 19.7693 44.3401 21.8448 44.3401 24C44.3401 35.0457 35.3858 44 24.3401 44C13.2944 44 4.34009 35.0457 4.34009 24C4.34009 12.9543 13.2944 4 24.3401 4Z"></path>
<path fill="url(#paint1_radial_1256_3399)" d="M24.3401 11.25C24.5417 11.25 24.7423 11.2547 24.9417 11.2639C24.7131 12.1045 24.7288 13.0095 25.0149 13.8678L25.1534 14.2834C24.8853 14.2613 24.614 14.25 24.3401 14.25C18.9553 14.25 14.5901 18.6152 14.5901 24C14.5901 29.3848 18.9553 33.75 24.3401 33.75C29.7249 33.75 34.0901 29.3848 34.0901 24C34.0901 23.7118 34.0776 23.4264 34.0531 23.1446L34.4109 23.2639C35.2889 23.5565 36.2156 23.5662 37.0723 23.321C37.0841 23.5459 37.0901 23.7722 37.0901 24C37.0901 31.0416 31.3817 36.75 24.3401 36.75C17.2985 36.75 11.5901 31.0416 11.5901 24C11.5901 16.9584 17.2985 11.25 24.3401 11.25Z"></path>
<path fill="#725CFF" d="M34.0253 6.5675C34.5313 6.68694 34.9393 7.05984 35.1037 7.55303L36.5093 11.7698L40.7261 13.1754C41.2193 13.3398 41.5922 13.7479 41.7116 14.2538C41.8311 14.7598 41.68 15.2915 41.3124 15.6591L36.9317 20.0398C36.53 20.4416 35.9357 20.5819 35.3967 20.4022L31.3473 19.0524L25.432 24.9677C24.8462 25.5535 23.8965 25.5535 23.3107 24.9677C22.7249 24.3819 22.7249 23.4322 23.3107 22.8464L29.2264 16.9307L27.877 12.8824C27.6973 12.3434 27.8376 11.7492 28.2393 11.3474L32.62 6.96671C32.9876 6.59911 33.5194 6.44806 34.0253 6.5675Z" clip-rule="evenodd" fill-rule="evenodd"></path>
<defs>
<radialGradient gradientTransform="translate(4.34009 24) rotate(-26.5651) scale(44.7214)" gradientUnits="userSpaceOnUse" r="1" cy="0" cx="0" id="paint0_radial_1256_3399">
<stop stop-color="#725CFF"></stop>
<stop stop-color="#B5B1FF" offset="1"></stop>
</radialGradient>
<radialGradient gradientTransform="translate(4.34009 24) rotate(-26.5651) scale(44.7214)" gradientUnits="userSpaceOnUse" r="1" cy="0" cx="0" id="paint1_radial_1256_3399">
<stop stop-color="#725CFF"></stop>
<stop stop-color="#B5B1FF" offset="1"></stop>
</radialGradient>
</defs>
</svg>
