<svg xmlns="http://www.w3.org/2000/svg" fill="none" viewBox="0 0 49 48" height="48" width="49">
<path fill="url(#paint0_radial_1256_3405)" d="M24.6719 4C19.8729 4 15.9827 7.89028 15.9827 12.6892C15.9827 17.4881 19.8729 21.3784 24.6719 21.3784C29.4708 21.3784 33.361 17.4881 33.361 12.6892C33.361 7.89028 29.4708 4 24.6719 4ZM18.9827 12.6892C18.9827 9.54713 21.5298 7 24.6719 7C27.8139 7 30.361 9.54713 30.361 12.6892C30.361 15.8312 27.8139 18.3784 24.6719 18.3784C21.5298 18.3784 18.9827 15.8312 18.9827 12.6892Z" clip-rule="evenodd" fill-rule="evenodd"></path>
<path fill="url(#paint1_radial_1256_3405)" d="M18.5374 24.3779C12.7384 24.3779 8.03735 29.0789 8.03735 34.8779V37.5C8.03735 39.9853 10.0521 42 12.5374 42H23.3151C22.5642 41.0908 21.928 40.0834 21.4285 39H12.5374C11.7089 39 11.0374 38.3284 11.0374 37.5V34.8779C11.0374 30.7358 14.3952 27.3779 18.5374 27.3779H21.4854C21.9989 26.2924 22.6503 25.2848 23.417 24.3779H18.5374Z"></path>
<path fill="#725CFF" d="M33.6452 27.4138C31.3383 25.1069 27.598 25.1069 25.291 27.4138C22.9841 29.7208 22.9841 33.4611 25.291 35.7681L31.4463 41.9234C32.8125 43.2895 35.0272 43.2903 36.3943 41.9251L42.5593 35.7689C44.8662 33.4619 44.867 29.7208 42.56 27.4139C40.2531 25.1069 36.5128 25.1069 34.2058 27.4139L33.9256 27.6941L33.6452 27.4138Z" clip-rule="evenodd" fill-rule="evenodd"></path>
<defs>
<radialGradient gradientTransform="translate(8.03735 23.4743) rotate(-28.2462) scale(41.1491 42.8883)" gradientUnits="userSpaceOnUse" r="1" cy="0" cx="0" id="paint0_radial_1256_3405">
<stop stop-color="#725CFF"></stop>
<stop stop-color="#B5B1FF" offset="1"></stop>
</radialGradient>
<radialGradient gradientTransform="translate(8.03735 23.4743) rotate(-28.2462) scale(41.1491 42.8883)" gradientUnits="userSpaceOnUse" r="1" cy="0" cx="0" id="paint1_radial_1256_3405">
<stop stop-color="#725CFF"></stop>
<stop stop-color="#B5B1FF" offset="1"></stop>
</radialGradient>
</defs>
</svg>
