<svg xmlns="http://www.w3.org/2000/svg" fill="none" viewBox="0 0 48 48" height="48" width="48">
<path fill="#725CFF" d="M2.5 19C2.5 18.1716 3.17157 17.5 4 17.5H6C6.82843 17.5 7.5 18.1716 7.5 19C7.5 19.8284 6.82843 20.5 6 20.5H4C3.17157 20.5 2.5 19.8284 2.5 19Z"></path>
<path fill="#725CFF" d="M7.42969 7.70096C6.71225 7.28675 5.79486 7.53256 5.38065 8.25C4.96644 8.96744 5.21225 9.88482 5.92969 10.299L7.66174 11.299C8.37918 11.7133 9.29656 11.4674 9.71078 10.75C10.125 10.0326 9.87918 9.11518 9.16174 8.70096L7.42969 7.70096Z"></path>
<path fill="#725CFF" d="M5.38065 29.75C4.96644 29.0326 5.21225 28.1152 5.92969 27.701L7.66174 26.701C8.37918 26.2867 9.29656 26.5326 9.71078 27.25C10.125 27.9674 9.87918 28.8848 9.16174 29.299L7.42969 30.299C6.71225 30.7133 5.79486 30.4674 5.38065 29.75Z"></path>
<path fill="#725CFF" d="M42 17.5C41.1716 17.5 40.5 18.1716 40.5 19C40.5 19.8284 41.1716 20.5 42 20.5H44C44.8284 20.5 45.5 19.8284 45.5 19C45.5 18.1716 44.8284 17.5 44 17.5H42Z"></path>
<path fill="#725CFF" d="M38.2908 27.25C38.705 26.5326 39.6224 26.2867 40.3398 26.701L42.0719 27.701C42.7893 28.1152 43.0351 29.0326 42.6209 29.75C42.2067 30.4674 41.2893 30.7133 40.5719 30.299L38.8398 29.299C38.1224 28.8848 37.8766 27.9674 38.2908 27.25Z"></path>
<path fill="#725CFF" d="M38.8398 8.70096C38.1224 9.11518 37.8766 10.0326 38.2908 10.75C38.705 11.4674 39.6224 11.7133 40.3398 11.299L42.0719 10.299C42.7893 9.88482 43.0351 8.96744 42.6209 8.25C42.2067 7.53256 41.2893 7.28675 40.5719 7.70096L38.8398 8.70096Z"></path>
<path fill="url(#paint0_radial_1256_3412)" d="M17.125 36.0906C17.0336 33.828 15.5377 31.7019 13.5203 29.7316C10.7331 27.0096 9 23.2057 9 18.9997C9 10.7156 15.7156 4 23.9997 4C32.2839 4 38.9995 10.7156 38.9995 18.9997C38.9995 23.2055 37.2666 27.0092 34.4798 29.7311C32.3976 31.7648 30.8711 33.9644 30.8711 36.3088V39.5C30.8711 41.9853 28.8564 44 26.3711 44H21.625C19.1397 44 17.125 41.9853 17.125 39.5V36.0906ZM12 18.9997C12 22.3651 13.3834 25.4046 15.6163 27.5854C17.0987 29.033 18.6397 30.8516 19.4824 33H28.5178C29.3603 30.8515 30.9013 29.0327 32.3836 27.5849C34.6163 25.4042 35.9995 22.3649 35.9995 18.9997C35.9995 12.3725 30.627 7 23.9997 7C17.3725 7 12 12.3725 12 18.9997ZM20.125 36.4259V39.5C20.125 40.3284 20.7966 41 21.625 41H26.3711C27.1995 41 27.8711 40.3284 27.8711 39.5V36H20.125V36.0349C20.1279 36.1261 20.1294 36.2177 20.1294 36.3097C20.1294 36.3488 20.1279 36.3875 20.125 36.4259Z"></path>
<defs>
<radialGradient gradientTransform="translate(9 24) rotate(-33.6905) scale(36.0551 41.6023)" gradientUnits="userSpaceOnUse" r="1" cy="0" cx="0" id="paint0_radial_1256_3412">
<stop stop-color="#725CFF"></stop>
<stop stop-color="#B5B1FF" offset="1"></stop>
</radialGradient>
</defs>
</svg>
