<svg xmlns="http://www.w3.org/2000/svg" fill="none" viewBox="0 0 49 48" height="48" width="49">
<path fill="url(#paint0_radial_1256_3422)" d="M5.86759 4.74979C6.13557 4.28581 6.63069 4 7.1665 4H16.6665C17.2026 4 17.6979 4.28608 17.9658 4.75042L24.6665 16.365L31.3672 4.75042C31.6351 4.28608 32.1304 4 32.6665 4H42.1665C42.7023 4 43.1974 4.28581 43.4654 4.74979C43.7334 5.21378 43.7335 5.78547 43.4658 6.24958L34.9587 20.9951C37.1431 23.4371 38.4712 26.6611 38.4712 30.1953C38.4712 37.8194 32.2906 44 24.6665 44C17.0424 44 10.8618 37.8194 10.8618 30.1953C10.8618 26.6611 12.1899 23.4371 14.3743 20.9951L5.86723 6.24958C5.59947 5.78547 5.59961 5.21378 5.86759 4.74979ZM39.5694 7H33.5328L27.896 16.7705C29.6415 17.1888 31.258 17.9387 32.6752 18.9499L39.5694 7ZM15.8002 7H9.76362L16.6578 18.9499C18.075 17.9387 19.6915 17.1888 21.437 16.7705L15.8002 7ZM24.6665 19.3906C18.6992 19.3906 13.8618 24.228 13.8618 30.1953C13.8618 36.1626 18.6992 41 24.6665 41C30.6338 41 35.4712 36.1626 35.4712 30.1953C35.4712 24.228 30.6338 19.3906 24.6665 19.3906Z"></path>
<path fill="#725CFF" d="M25.3691 23.8257C25.1463 23.1401 24.1763 23.1401 23.9536 23.8257L22.8401 27.2525C22.7405 27.5591 22.4548 27.7667 22.1324 27.7667H18.5293C17.8084 27.7667 17.5087 28.6892 18.0919 29.1129L21.0068 31.2308C21.2677 31.4203 21.3768 31.7562 21.2772 32.0628L20.1638 35.4895C19.941 36.1751 20.7257 36.7453 21.3089 36.3215L24.2239 34.2037C24.4847 34.0142 24.8379 34.0142 25.0987 34.2037L28.0137 36.3215C28.5969 36.7453 29.3816 36.1751 29.1589 35.4895L28.0455 32.0628C27.9458 31.7562 28.055 31.4203 28.3158 31.2308L31.2307 29.1129C31.814 28.6892 31.5142 27.7667 30.7933 27.7667H27.1903C26.8679 27.7667 26.5821 27.5591 26.4825 27.2525L25.3691 23.8257Z"></path>
<defs>
<radialGradient gradientTransform="translate(5.6665 24) rotate(-27.7585) scale(42.9418 44.2459)" gradientUnits="userSpaceOnUse" r="1" cy="0" cx="0" id="paint0_radial_1256_3422">
<stop stop-color="#725CFF"></stop>
<stop stop-color="#B5B1FF" offset="1"></stop>
</radialGradient>
</defs>
</svg>
