<svg xmlns="http://www.w3.org/2000/svg" fill="none" viewBox="0 0 49 48" height="48" width="49">
<path fill="#725CFF" d="M29.3706 16.5879C29.6028 16.0274 30.1499 15.662 30.7566 15.6621L37.8198 15.6635C38.6474 15.6636 39.3186 16.3341 39.3195 17.1618L39.3274 24.2315C39.3281 24.8385 38.9629 25.3861 38.4022 25.6187C37.8415 25.8513 37.1959 25.723 36.7667 25.2938L34.2886 22.8157L27.6985 29.4058C27.4172 29.6871 27.0357 29.8451 26.6379 29.8451C26.24 29.8451 25.8585 29.6871 25.5772 29.4058L18.7325 22.5611L9.39391 31.8997C8.80813 32.4854 7.85838 32.4854 7.27259 31.8997C6.68681 31.3139 6.68681 30.3641 7.27259 29.7783L17.6719 19.3791C17.9532 19.0978 18.3347 18.9397 18.7325 18.9397C19.1303 18.9397 19.5119 19.0978 19.7932 19.3791L26.6379 26.2238L32.1673 20.6944L29.6957 18.2228C29.2666 17.7937 29.1383 17.1485 29.3706 16.5879Z" clip-rule="evenodd" fill-rule="evenodd"></path>
<path fill="url(#paint0_radial_1256_3418)" d="M8.33325 6.5C9.16168 6.5 9.83325 7.17157 9.83325 8V37C9.83325 37.8284 10.5048 38.5 11.3333 38.5H40.3342C41.1627 38.5 41.8342 39.1716 41.8342 40C41.8342 40.8284 41.1627 41.5 40.3342 41.5H11.3333C8.84797 41.5 6.83325 39.4853 6.83325 37V8C6.83325 7.17157 7.50482 6.5 8.33325 6.5Z" clip-rule="evenodd" fill-rule="evenodd"></path>
<defs>
<radialGradient gradientTransform="translate(6.83325 24) rotate(-26.5644) scale(39.1321 39.1314)" gradientUnits="userSpaceOnUse" r="1" cy="0" cx="0" id="paint0_radial_1256_3418">
<stop stop-color="#725CFF"></stop>
<stop stop-color="#B5B1FF" offset="1"></stop>
</radialGradient>
</defs>
</svg>
