<svg width="48" height="48" viewBox="0 0 48 48" fill="none" xmlns="http://www.w3.org/2000/svg">
<rect width="48" height="48" fill="#9FE870"></rect>
<path d="M17.8853 10.9922C16.2043 10.9922 14.6576 11.9105 13.853 13.3864L9 22.2872H17.4719C17.9057 22.2872 18.3238 22.1246 18.6437 21.8315L28.2546 13.0249L24.4054 21.0447C24.1291 21.6204 24.5486 22.2872 25.1872 22.2872H31.5273C34.6463 22.2872 37.1748 19.7587 37.1748 16.6397C37.1748 13.5207 34.6463 10.9922 31.5273 10.9922H17.8853Z" fill="white"></path>
<path d="M30.1147 37.0087C31.7957 37.0087 33.3424 36.0904 34.147 34.6145L39 25.7137H30.5281C30.0943 25.7137 29.6762 25.8763 29.3563 26.1694L19.7454 34.976L23.5946 26.9562C23.8709 26.3805 23.4514 25.7137 22.8128 25.7137H16.4727C13.3537 25.7137 10.8253 28.2422 10.8253 31.3612C10.8253 34.4802 13.3537 37.0087 16.4727 37.0087L30.1147 37.0087Z" fill="white"></path>
</svg>
