<svg width="48" height="48" viewBox="0 0 48 48" fill="none" xmlns="http://www.w3.org/2000/svg">
<rect width="48" height="48" fill="#625DF5"></rect>
<path d="M36.8113 20.051V29.4801C36.8113 31.396 35.8266 33.176 34.2066 34.1946L26.6255 38.9625C26.4654 39.0644 26.252 38.9479 26.252 38.7588V35.4218C26.252 34.8737 26.5236 34.3644 26.9795 34.0588L31.8153 30.8333C32.4896 30.3822 32.897 29.6256 32.897 28.8156V22.3161C32.897 21.7971 33.1735 21.3169 33.6245 21.055L36.0837 19.6386C36.4086 19.4544 36.8113 19.6872 36.8113 20.0606V20.051Z" fill="white"></path>
<path d="M36.2271 17.2286L25.5174 23.4128C24.7656 23.8445 24.3049 24.6448 24.3049 25.5131V38.5411C24.3049 38.7303 24.1011 38.8467 23.9411 38.7497L14.0172 32.9778C12.2662 31.9592 11.1895 30.0918 11.1895 28.0644V20.1776C11.1895 17.801 12.4554 15.6038 14.5168 14.4154L23.5481 9.19644C23.9993 8.93452 24.5522 8.93452 25.0033 9.19644L27.2635 10.5012C27.7486 10.7825 27.7486 11.481 27.2635 11.7623L16.4812 17.9853C15.7294 18.417 15.2686 19.2173 15.2686 20.0855V27.5842C15.2686 28.4524 15.7294 29.2527 16.4812 29.6844L20.056 31.7458C20.1336 31.7894 20.2257 31.7361 20.2257 31.6488V24.1986C20.2257 22.6853 21.0308 21.2932 22.3405 20.5366L32.7008 14.5561C33.1858 14.2748 33.7873 14.299 34.2481 14.6143L36.2707 15.9967C36.712 16.2974 36.6878 16.957 36.2222 17.2286H36.2271Z" fill="white"></path>
</svg>
